<svg width="15" height="15" viewBox="0 0 15 15" fill="none" xmlns="http://www.w3.org/2000/svg">
<g clip-path="url(#clip0_4_627)">
<path d="M4.38799 0.257693C3.62094 0.293883 3.09714 0.416291 2.63922 0.596229C2.16529 0.780924 1.76361 1.02877 1.36394 1.42988C0.964277 1.83099 0.718162 2.23297 0.534765 2.7076C0.357278 3.16653 0.237032 3.69077 0.20315 4.45824C0.169268 5.22571 0.16177 5.4724 0.165519 7.43009C0.169268 9.38773 0.177919 9.6332 0.215117 10.4023C0.251739 11.1691 0.373716 11.6928 0.553652 12.1508C0.738636 12.6247 0.986193 13.0263 1.38745 13.4261C1.7887 13.8259 2.19039 14.0714 2.66618 14.2551C3.12468 14.4323 3.64906 14.5532 4.41639 14.5867C5.18371 14.6203 5.43069 14.6281 7.38779 14.6244C9.34487 14.6206 9.59131 14.612 10.3602 14.5755C11.1292 14.539 11.65 14.4162 12.1082 14.2371C12.5821 14.0517 12.984 13.8046 13.3835 13.4031C13.783 13.0018 14.029 12.5995 14.2123 12.1246C14.3899 11.6661 14.5106 11.1418 14.5439 10.375C14.5775 9.60549 14.5854 9.35976 14.5816 7.4024C14.5779 5.44501 14.5691 5.19961 14.5327 4.43084C14.4961 3.66208 14.374 3.14 14.1943 2.68165C14.009 2.20773 13.7618 1.80648 13.3606 1.40638C12.9595 1.00628 12.557 0.76045 12.0822 0.57763C11.6234 0.400143 11.0993 0.279176 10.332 0.246015C9.56466 0.212853 9.3176 0.204347 7.35982 0.208095C5.402 0.211844 5.15689 0.220207 4.38799 0.257693ZM4.47218 13.2898C3.76931 13.2593 3.38766 13.1425 3.13332 13.0447C2.79652 12.915 2.5566 12.7581 2.30314 12.5071C2.04966 12.2561 1.89395 12.0153 1.76246 11.6792C1.66369 11.4249 1.54474 11.0436 1.51188 10.3408C1.47612 9.58114 1.46862 9.35305 1.46444 7.42836C1.46026 5.50369 1.46761 5.27588 1.50092 4.51591C1.53091 3.81361 1.64841 3.43154 1.74603 3.17734C1.87579 2.8401 2.03208 2.60062 2.28367 2.3473C2.53527 2.09398 2.77533 1.93797 3.1117 1.80648C3.36574 1.70729 3.74696 1.58934 4.44955 1.55589C5.20981 1.51985 5.43762 1.51264 7.36198 1.50846C9.28637 1.50427 9.51472 1.51148 10.2753 1.54493C10.9776 1.5755 11.3598 1.69185 11.6138 1.79004C11.9506 1.9198 12.1905 2.07566 12.4438 2.32769C12.6971 2.57971 12.8532 2.81891 12.9848 3.156C13.0841 3.40933 13.202 3.7904 13.2352 4.49342C13.2713 5.25368 13.2795 5.48163 13.2831 7.40586C13.2865 9.33011 13.2797 9.55864 13.2465 10.3183C13.2157 11.0211 13.0992 11.4029 13.0013 11.6576C12.8715 11.9943 12.7151 12.2343 12.4634 12.4875C12.2116 12.7407 11.9719 12.8967 11.6354 13.0281C11.3816 13.1272 11 13.2455 10.2979 13.2789C9.53766 13.3146 9.30984 13.3221 7.38477 13.3264C5.45967 13.3305 5.23244 13.3228 4.47218 13.2898ZM10.3491 3.56332C10.3494 3.73442 10.4004 3.9016 10.4957 4.04371C10.591 4.18582 10.7264 4.29648 10.8846 4.36168C11.0428 4.42688 11.2167 4.44371 11.3845 4.41002C11.5523 4.37634 11.7062 4.29367 11.827 4.17246C11.9478 4.05124 12.0299 3.89693 12.063 3.72905C12.096 3.56116 12.0786 3.38724 12.0128 3.22928C11.947 3.07133 11.8358 2.93643 11.6934 2.84164C11.5509 2.74686 11.3835 2.69645 11.2125 2.69679C10.983 2.69725 10.7633 2.78879 10.6013 2.95129C10.4394 3.11378 10.3487 3.33393 10.3491 3.56332ZM3.67212 7.42345C3.67617 9.46793 5.33654 11.1216 7.38058 11.1177C9.42463 11.1138 11.0794 9.45355 11.0755 7.40903C11.0716 5.36456 9.41078 3.71052 7.36646 3.71456C5.32212 3.71859 3.66823 5.37926 3.67212 7.42345ZM4.97061 7.42086C4.96968 6.94558 5.10969 6.48069 5.37296 6.08499C5.63622 5.68929 6.01092 5.38055 6.44966 5.19779C6.8884 5.01505 7.37148 4.9665 7.83781 5.0583C8.30413 5.1501 8.73277 5.37812 9.06949 5.71353C9.40628 6.04893 9.63596 6.47666 9.72957 6.94262C9.82328 7.40858 9.7766 7.89185 9.59563 8.33131C9.41457 8.77077 9.10734 9.14667 8.71268 9.41155C8.31802 9.67634 7.8537 9.81823 7.37842 9.81911C7.06284 9.81982 6.75021 9.75832 6.45841 9.63814C6.1666 9.51796 5.90133 9.34149 5.67773 9.11879C5.45413 8.89605 5.2766 8.63148 5.15528 8.34014C5.03395 8.04882 4.9712 7.73644 4.97061 7.42086Z" fill="#150764"/>
</g>
<defs>
<clipPath id="clip0_4_627">
<rect width="14.4179" height="14.418" fill="white" transform="translate(0.164642 0.207275)"/>
</clipPath>
</defs>
</svg>
